<?xml version="1.0" encoding="UTF-8" standalone="no"?>
<!-- Created with Inkscape (http://www.inkscape.org/) -->

<svg
   version="1.1"
   id="svg2"
   width="26.666668"
   height="26.666668"
   viewBox="0 0 26.666668 26.666668"
   sodipodi:docname="Adda2.ai"
   xmlns:inkscape="http://www.inkscape.org/namespaces/inkscape"
   xmlns:sodipodi="http://sodipodi.sourceforge.net/DTD/sodipodi-0.dtd"
   xmlns="http://www.w3.org/2000/svg"
   xmlns:svg="http://www.w3.org/2000/svg">
  <defs
     id="defs6">
    <clipPath
       clipPathUnits="userSpaceOnUse"
       id="clipPath24">
      <path
         d="M 0,20 H 20 V 0 H 0 Z"
         id="path22" />
    </clipPath>
  </defs>
  <sodipodi:namedview
     id="namedview4"
     pagecolor="#ffffff"
     bordercolor="#000000"
     borderopacity="0.25"
     inkscape:showpageshadow="2"
     inkscape:pageopacity="0.0"
     inkscape:pagecheckerboard="0"
     inkscape:deskcolor="#d1d1d1" />
  <g
     id="g8"
     inkscape:groupmode="layer"
     inkscape:label="Adda2"
     transform="matrix(1.3333333,0,0,-1.3333333,0,26.666667)">
    <path
       d="M 1.669,7.601 H 4.715 V 7.687 H 1.669 Z"
       style="fill:#000000;fill-opacity:1;fill-rule:nonzero;stroke:none"
       id="path10" />
    <path
       d="m 15.323,7.601 h 3.046 v 0.086 h -3.046 z"
       style="fill:#000000;fill-opacity:1;fill-rule:nonzero;stroke:none"
       id="path12" />
    <g
       id="g14"
       transform="translate(5.8815,7.992)">
      <path
         d="m 0,0 -0.266,-0.575 h 0.076 l 0.069,0.154 h 0.298 l 0.07,-0.154 H 0.322 L 0.058,0 Z m 0.028,-0.094 0.121,-0.265 h -0.242 z"
         style="fill:#000000;fill-opacity:1;fill-rule:nonzero;stroke:none"
         id="path16" />
    </g>
    <g
       id="g18">
      <g
         id="g20"
         clip-path="url(#clipPath24)">
        <g
           id="g26"
           transform="translate(6.6078,7.927)">
          <path
             d="M 0,0 H 0.159 C 0.208,0 0.251,-0.01 0.286,-0.029 0.322,-0.048 0.349,-0.074 0.369,-0.107 0.388,-0.14 0.398,-0.179 0.398,-0.223 0.398,-0.266 0.388,-0.305 0.369,-0.338 0.349,-0.372 0.322,-0.398 0.286,-0.417 0.251,-0.436 0.208,-0.446 0.159,-0.446 H 0 Z M 0.321,0.028 C 0.275,0.052 0.222,0.065 0.162,0.065 H -0.069 V -0.51 h 0.231 c 0.06,0 0.113,0.012 0.159,0.036 0.046,0.025 0.082,0.059 0.107,0.103 0.026,0.043 0.039,0.093 0.039,0.148 0,0.056 -0.013,0.106 -0.039,0.149 -0.025,0.043 -0.061,0.077 -0.107,0.102"
             style="fill:#000000;fill-opacity:1;fill-rule:nonzero;stroke:none"
             id="path28" />
        </g>
        <g
           id="g30"
           transform="translate(7.5255,7.927)">
          <path
             d="M 0,0 H 0.159 C 0.208,0 0.251,-0.01 0.286,-0.029 0.322,-0.048 0.349,-0.074 0.369,-0.107 0.388,-0.14 0.398,-0.179 0.398,-0.223 0.398,-0.266 0.388,-0.305 0.369,-0.338 0.349,-0.372 0.322,-0.398 0.286,-0.417 0.251,-0.436 0.208,-0.446 0.159,-0.446 H 0 Z M 0.321,0.028 C 0.275,0.052 0.222,0.065 0.162,0.065 H -0.069 V -0.51 h 0.231 c 0.06,0 0.113,0.012 0.159,0.036 0.046,0.025 0.082,0.059 0.107,0.103 0.026,0.043 0.039,0.093 0.039,0.148 0,0.056 -0.013,0.106 -0.039,0.149 -0.025,0.043 -0.061,0.077 -0.107,0.102"
             style="fill:#000000;fill-opacity:1;fill-rule:nonzero;stroke:none"
             id="path32" />
        </g>
        <g
           id="g34"
           transform="translate(8.4402,7.6328)">
          <path
             d="M 0,0 0.121,0.266 0.242,0 Z m 0.092,0.359 -0.265,-0.575 h 0.075 l 0.07,0.154 H 0.27 L 0.34,-0.216 H 0.415 L 0.15,0.359 Z"
             style="fill:#000000;fill-opacity:1;fill-rule:nonzero;stroke:none"
             id="path36" />
        </g>
        <g
           id="g38"
           transform="translate(10.192,7.9917)">
          <path
             d="M 0,0 -0.236,-0.408 -0.472,0 h -0.056 v -0.575 h 0.068 v 0.427 l 0.206,-0.355 h 0.036 l 0.206,0.356 v -0.428 h 0.068 l 0,0.575 z"
             style="fill:#000000;fill-opacity:1;fill-rule:nonzero;stroke:none"
             id="path40" />
        </g>
        <g
           id="g42"
           transform="translate(11.1582,7.7041)">
          <path
             d="m 0,0 c 0,-0.032 -0.006,-0.062 -0.017,-0.09 -0.012,-0.027 -0.028,-0.051 -0.048,-0.071 -0.021,-0.021 -0.045,-0.037 -0.073,-0.048 -0.055,-0.022 -0.127,-0.022 -0.182,0 -0.028,0.011 -0.053,0.027 -0.073,0.048 -0.021,0.02 -0.037,0.044 -0.049,0.071 -0.011,0.028 -0.017,0.058 -0.017,0.09 0,0.033 0.006,0.063 0.017,0.09 0.012,0.027 0.028,0.051 0.049,0.071 0.02,0.021 0.045,0.037 0.073,0.048 0.027,0.011 0.058,0.017 0.091,0.017 0.033,0 0.063,-0.006 0.091,-0.017 C -0.11,0.198 -0.086,0.182 -0.065,0.162 -0.045,0.141 -0.029,0.117 -0.017,0.09 -0.006,0.063 0,0.033 0,0 M -0.016,0.209 C -0.043,0.235 -0.075,0.255 -0.111,0.27 -0.183,0.299 -0.275,0.299 -0.347,0.27 -0.383,0.255 -0.415,0.235 -0.442,0.208 -0.469,0.182 -0.491,0.15 -0.505,0.115 -0.52,0.08 -0.528,0.041 -0.528,0 c 0,-0.041 0.008,-0.08 0.023,-0.115 0.014,-0.035 0.036,-0.067 0.063,-0.093 0.027,-0.027 0.059,-0.047 0.095,-0.062 0.036,-0.014 0.076,-0.021 0.118,-0.021 0.042,0 0.082,0.007 0.118,0.021 0.036,0.015 0.068,0.035 0.095,0.061 0.027,0.027 0.048,0.058 0.063,0.093 0.015,0.035 0.022,0.074 0.022,0.116 0,0.042 -0.007,0.081 -0.022,0.116 -0.015,0.035 -0.036,0.066 -0.063,0.093"
             style="fill:#000000;fill-opacity:1;fill-rule:nonzero;stroke:none"
             id="path44" />
        </g>
        <g
           id="g46"
           transform="translate(11.6787,7.927)">
          <path
             d="M 0,0 H 0.159 C 0.208,0 0.251,-0.01 0.286,-0.029 0.322,-0.048 0.349,-0.074 0.369,-0.107 0.388,-0.14 0.398,-0.179 0.398,-0.223 0.398,-0.266 0.388,-0.305 0.369,-0.338 0.349,-0.372 0.322,-0.398 0.286,-0.417 0.251,-0.436 0.208,-0.446 0.159,-0.446 H 0 Z M 0.321,0.028 C 0.275,0.052 0.222,0.065 0.162,0.065 H -0.069 V -0.51 h 0.231 c 0.06,0 0.113,0.012 0.159,0.036 0.046,0.025 0.082,0.059 0.107,0.103 0.026,0.043 0.039,0.093 0.039,0.148 0,0.056 -0.013,0.106 -0.039,0.149 -0.025,0.043 -0.061,0.077 -0.107,0.102"
             style="fill:#000000;fill-opacity:1;fill-rule:nonzero;stroke:none"
             id="path48" />
        </g>
        <g
           id="g50"
           transform="translate(12.5964,7.6765)">
          <path
             d="M 0,0 H 0.291 V 0.064 H 0 V 0.25 H 0.325 V 0.315 H -0.069 V -0.26 h 0.406 v 0.065 l -0.337,0 z"
             style="fill:#000000;fill-opacity:1;fill-rule:nonzero;stroke:none"
             id="path52" />
        </g>
        <g
           id="g54"
           transform="translate(13.3916,7.9917)">
          <path
             d="M 0,0 H -0.069 V -0.575 H 0.314 V -0.51 H 0 Z"
             style="fill:#000000;fill-opacity:1;fill-rule:nonzero;stroke:none"
             id="path56" />
        </g>
        <g
           id="g58"
           transform="translate(14.3934,7.6485)">
          <path
             d="m 0,0 c -0.014,0.019 -0.032,0.035 -0.054,0.047 -0.021,0.01 -0.045,0.019 -0.069,0.026 -0.025,0.007 -0.049,0.013 -0.074,0.019 -0.023,0.005 -0.045,0.012 -0.064,0.02 -0.019,0.007 -0.033,0.017 -0.044,0.03 -0.01,0.011 -0.015,0.026 -0.015,0.046 0,0.018 0.005,0.033 0.014,0.047 0.01,0.014 0.025,0.026 0.045,0.035 0.036,0.015 0.093,0.02 0.153,0.002 C -0.084,0.265 -0.06,0.254 -0.039,0.24 L -0.025,0.23 0.002,0.288 -0.007,0.295 C -0.029,0.311 -0.056,0.324 -0.087,0.333 -0.117,0.342 -0.149,0.347 -0.18,0.347 -0.227,0.347 -0.266,0.34 -0.297,0.325 -0.328,0.311 -0.351,0.291 -0.366,0.267 -0.381,0.243 -0.388,0.216 -0.388,0.188 c 0,-0.032 0.007,-0.058 0.021,-0.078 0.013,-0.02 0.031,-0.036 0.054,-0.048 0.021,-0.01 0.044,-0.019 0.07,-0.026 0.024,-0.007 0.049,-0.013 0.073,-0.019 0.023,-0.005 0.044,-0.012 0.064,-0.02 0.018,-0.007 0.033,-0.017 0.044,-0.03 0.01,-0.011 0.015,-0.026 0.015,-0.046 0,-0.017 -0.005,-0.032 -0.014,-0.046 -0.01,-0.014 -0.025,-0.025 -0.046,-0.034 -0.021,-0.008 -0.049,-0.013 -0.083,-0.013 -0.035,0 -0.068,0.007 -0.098,0.019 -0.031,0.012 -0.055,0.028 -0.072,0.045 l -0.013,0.014 -0.034,-0.055 0.008,-0.008 c 0.021,-0.023 0.051,-0.043 0.089,-0.057 0.038,-0.015 0.078,-0.022 0.12,-0.022 0.047,0 0.087,0.007 0.118,0.021 0.031,0.015 0.055,0.034 0.07,0.059 0.016,0.024 0.023,0.051 0.023,0.079 C 0.021,-0.046 0.014,-0.02 0,0"
             style="fill:#000000;fill-opacity:1;fill-rule:nonzero;stroke:none"
             id="path60" />
        </g>
        <g
           id="g62"
           transform="translate(7.6788,11.935)">
          <path
             d="m 0,0 c -0.05,-0.051 -0.102,-0.104 -0.159,-0.144 -0.024,-0.017 -0.081,-0.018 -0.107,-0.004 -0.009,0.008 -0.017,0.054 -0.012,0.094 0.006,0.045 0.024,0.091 0.041,0.135 l 0.011,0.029 c 0.16,0.427 0.321,0.853 0.482,1.28 0.01,0.028 0.022,0.055 0.034,0.083 L 0.296,1.488 C 0.356,1.322 0.421,1.155 0.484,0.994 0.633,0.611 0.787,0.215 0.89,-0.186 1.07,-0.893 1.001,-1.555 0.682,-2.155 0.467,-2.559 0.175,-2.763 -0.21,-2.777 c -0.381,-0.013 -0.664,0.205 -0.744,0.569 -0.094,0.426 0.029,0.805 0.366,1.127 0.127,0.121 0.272,0.229 0.412,0.333 0.081,0.06 0.165,0.123 0.245,0.187 0.146,0.118 0.312,0.253 0.458,0.399 0.057,0.058 0.098,0.157 0.105,0.254 C 0.638,0.168 0.598,0.28 0.538,0.316 0.514,0.33 0.483,0.337 0.449,0.337 0.393,0.337 0.332,0.319 0.295,0.293 0.228,0.246 0.172,0.184 0.118,0.124 0.091,0.095 0.065,0.066 0.038,0.039 Z m 2.964,1.781 c -10e-4,0.105 0.027,0.14 0.13,0.164 0.219,0.051 0.463,0.097 0.716,0.097 0.167,0 0.338,-0.02 0.51,-0.071 C 4.821,1.822 5.183,1.468 5.398,0.919 5.74,0.048 5.753,-0.84 5.438,-1.72 5.092,-2.686 4.367,-3.096 3.339,-2.906 2.967,-2.837 2.967,-2.837 2.967,-2.458 V 0.106 C 2.968,0.655 2.969,1.223 2.964,1.781 M 6.111,-0.014 C 6.047,0.559 5.863,1.024 5.548,1.406 5.096,1.954 4.489,2.201 3.692,2.162 3.309,2.143 2.92,2.119 2.544,2.096 2.399,2.087 2.253,2.078 2.107,2.069 2.093,2.068 2.08,2.063 2.069,2.058 2.065,2.057 2.061,2.055 2.057,2.054 L 1.938,2.014 2.062,1.998 C 2.397,1.953 2.426,1.708 2.458,1.448 L 2.462,1.412 C 2.474,1.317 2.479,1.215 2.479,1.098 L 2.48,0.948 c 10e-4,-0.969 0.002,-1.971 -0.002,-2.957 0,-0.135 -0.017,-0.273 -0.032,-0.406 L 2.434,-2.514 C 2.431,-2.545 2.419,-2.575 2.407,-2.607 2.404,-2.617 2.4,-2.627 2.397,-2.636 L 2.388,-2.637 C 2.359,-2.574 2.33,-2.51 2.3,-2.447 2.232,-2.3 2.161,-2.148 2.103,-1.995 1.747,-1.063 1.394,-0.13 1.041,0.802 L 0.584,2.008 C 0.572,2.04 0.557,2.072 0.539,2.112 0.529,2.133 0.518,2.156 0.506,2.184 L 0.48,2.241 0.454,2.184 C 0.442,2.16 0.432,2.139 0.423,2.122 0.408,2.09 0.396,2.067 0.387,2.042 0.138,1.384 -0.111,0.726 -0.36,0.067 -0.373,0.032 -0.39,-0.012 -0.397,-0.057 c -0.012,-0.082 0.012,-0.154 0.064,-0.193 0.05,-0.037 0.118,-0.039 0.187,-0.005 0.084,0.04 0.154,0.11 0.221,0.177 l 0.018,0.017 C 0.132,-0.022 0.168,0.021 0.202,0.062 0.237,0.104 0.274,0.147 0.313,0.186 0.357,0.228 0.402,0.252 0.437,0.249 0.456,0.248 0.472,0.238 0.486,0.22 0.515,0.183 0.509,0.086 0.486,0.025 0.462,-0.036 0.4,-0.091 0.342,-0.137 0.242,-0.216 0.134,-0.291 0.029,-0.362 L -0.015,-0.393 C -0.1,-0.452 -0.187,-0.51 -0.273,-0.567 c -0.172,-0.114 -0.349,-0.232 -0.516,-0.359 -0.325,-0.247 -0.521,-0.5 -0.618,-0.799 -0.12,-0.367 -0.049,-0.778 0.182,-1.045 0.172,-0.201 0.42,-0.306 0.712,-0.306 0.072,0 0.146,0.007 0.222,0.019 0.529,0.089 0.903,0.395 1.145,0.937 0.226,0.508 0.237,1.042 0.215,1.501 C 1.302,-1.187 1.507,-1.737 1.662,-2.161 1.692,-2.245 1.711,-2.342 1.718,-2.45 1.732,-2.658 1.642,-2.78 1.437,-2.834 1.375,-2.85 1.311,-2.86 1.248,-2.869 1.218,-2.873 1.189,-2.878 1.16,-2.883 L 1.136,-2.887 v -0.088 h 0.076 c 0.033,0 0.067,10e-4 0.1,0 l 0.48,-0.013 c 0.462,-0.013 0.94,-0.025 1.41,-0.041 0.098,-0.003 0.197,-0.012 0.293,-0.02 0.144,-0.013 0.293,-0.026 0.439,-0.021 0.849,0.027 1.476,0.408 1.862,1.134 0.294,0.552 0.397,1.181 0.315,1.922"
             style="fill:#000000;fill-opacity:1;fill-rule:nonzero;stroke:none"
             id="path64" />
        </g>
      </g>
    </g>
  </g>
</svg>
